<svg xmlns="http://www.w3.org/2000/svg" xmlns:graph="&amp;ns_graphs;" xmlns:i="&amp;ns_ai;" xmlns:x="&amp;ns_extend;" xmlns:xlink="http://www.w3.org/1999/xlink" id="Layer_1" width="20" height="20" fill="#fff" enable-background="new 0 0 24 24" version="1.1" viewBox="0 0 24 24" xml:space="preserve"><g id="SVGRepo_iconCarrier"><metadata><a0:sfw xmlns="&amp;ns_sfw;" xmlns:a0="http://www.w3.org/2000/svg"><a0:slices/><a0:slicesourcebounds width="505" height="984" x="0" y="-552" bottomleftorigin="true"/></a0:sfw></metadata><g><g><g><path d="M22,6H2C0.9,6,0,5.1,0,4V2c0-1.1,0.9-2,2-2h20c1.1,0,2,0.9,2,2v2C24,5.1,23.1,6,22,6z M22,4v1V4L22,4L22,4z M2,2v2h20 l0-2H2z"/></g></g><g><g><path d="M22,15H2c-1.1,0-2-0.9-2-2v-2c0-1.1,0.9-2,2-2h20c1.1,0,2,0.9,2,2v2C24,14.1,23.1,15,22,15z M22,13v1V13L22,13L22,13z M2,11v2h20l0-2H2z"/></g></g><g><g><path d="M11,23H2c-0.5,0-1-0.5-1-1v-2c0-0.5,0.5-1,1-1h9c0.6,0,1,0.5,1,1v2C12,22.5,11.6,23,11,23z"/></g><g><path d="M11,24H2c-1.1,0-2-0.9-2-2v-2c0-1.1,0.9-2,2-2h9c1.1,0,2,0.9,2,2v2C13,23.1,12.1,24,11,24z M11,22v1V22L11,22L11,22z M2,20v2h9l0-2H2z"/></g></g></g></g></svg>